<?xml version="1.0" encoding="UTF-8" standalone="no"?>
<svg width="1024px" height="1024px" viewBox="0 0 1024 1024" version="1.1" xmlns="http://www.w3.org/2000/svg" xmlns:xlink="http://www.w3.org/1999/xlink">
    <!-- Generator: Sketch 43.1 (39012) - http://www.bohemiancoding.com/sketch -->
    <title>api</title>
    <desc>Created with Sketch.</desc>
    <defs></defs>
    <g id="图标" stroke="none" stroke-width="1" fill="none" fill-rule="evenodd">
        <g id="api" fill-rule="nonzero" fill="#000000">
            <g id="API" transform="translate(64.000000, 64.000000)">
                <path d="M884.8,11.2 C869.866667,-3.73333333 846.72,-3.73333333 831.786667,11.2 L762.346667,80.64 C723.52,53.0133333 677.973333,39.5733333 632.426667,39.5733333 C574.933333,39.5733333 517.44,61.2266667 474.133333,105.28 L358.4,221.013333 L674.986667,537.6 L791.466667,421.866667 C869.866667,343.466667 877.333333,221.013333 815.36,133.653333 L884.8,64.2133333 C899.733333,49.28 899.733333,25.3866667 884.8,11.2 Z M738.453333,368.853333 L674.986667,432.32 L463.68,221.013333 L527.146667,157.546667 C555.52,129.173333 592.853333,114.24 632.426667,114.24 C672.746667,114.24 710.08,129.92 737.706667,157.546667 C766.08,185.92 781.013333,223.253333 781.013333,262.826667 C781.76,303.146667 766.08,340.48 738.453333,368.853333 Z" id="Shape"></path>
                <path d="M527.146667,474.133333 C512.213333,459.2 489.066667,459.2 474.133333,474.133333 L405.44,542.826667 L352.426667,489.813333 L421.12,421.12 C436.053333,406.186667 436.053333,383.04 421.12,368.106667 C406.186667,353.173333 383.04,353.173333 368.106667,368.106667 L299.413333,436.8 L221.013333,358.4 L104.533333,474.133333 C26.1333333,552.533333 18.6666667,674.986667 80.64,762.346667 L11.2,831.786667 C-3.73333333,846.72 -3.73333333,869.866667 11.2,884.8 C18.6666667,892.266667 28.3733333,896 37.3333333,896 C46.2933333,896 56.7466667,892.266667 63.4666667,884.8 L132.906667,815.36 C171.733333,842.986667 217.28,856.426667 262.826667,856.426667 C320.32,856.426667 377.813333,834.773333 421.12,790.72 L537.6,674.986667 L458.453333,595.84 L527.146667,527.146667 C542.08,512.96 542.08,489.066667 527.146667,474.133333 Z M368.853333,738.453333 C340.48,766.826667 303.146667,781.76 263.573333,781.76 C224,781.76 185.92,766.08 158.293333,738.453333 C129.92,710.08 114.986667,672.746667 114.986667,633.173333 C114.986667,592.853333 130.666667,555.52 158.293333,527.893333 L221.76,464.426667 L433.066667,675.733333 L368.853333,738.453333 Z" id="Shape"></path>
            </g>
        </g>
    </g>
</svg>