<?xml version="1.0" standalone="no"?><!DOCTYPE svg PUBLIC "-//W3C//DTD SVG 1.1//EN" "http://www.w3.org/Graphics/SVG/1.1/DTD/svg11.dtd"><svg class="icon" width="64px" height="64.00px" viewBox="0 0 1024 1024" version="1.1" xmlns="http://www.w3.org/2000/svg"><path d="M829.3376 953.0368 769.024 953.0368c-21.2992-36.2496-42.7008-81.5104-63.8976-134.8608l26.3168 0c10.6496 0 19.2512-8.6016 19.2512-19.2512s-8.6016-19.2512-19.2512-19.2512l-41.0624 0c-29.4912-79.7696-58.4704-174.8992-86.016-283.136-40.3456-158.5152-63.6928-290.0992-63.8976-291.4304-0.1024-0.3072-0.2048-0.7168-0.2048-1.024l31.6416 0c5.9392 0 10.6496-4.8128 10.6496-10.6496l0-37.0688c0-5.9392-4.8128-10.6496-10.6496-10.6496l-2.048 0c-3.584-19.8656-19.1488-35.6352-38.912-39.424L530.944 53.5552c0-5.9392-4.8128-10.6496-10.6496-10.6496s-10.6496 4.8128-10.6496 10.6496l0 53.3504c-18.432 4.7104-32.6656 19.8656-36.0448 38.8096l-2.56 0c-5.9392 0-10.6496 4.8128-10.6496 10.6496l0 37.0688c0 5.9392 4.8128 10.6496 10.6496 10.6496l29.696 0c-0.1024 0.3072-0.2048 0.7168-0.2048 1.024-0.2048 0.9216-12.8 72.3968-35.5328 173.1584-0.4096 1.024-0.6144 2.048-0.7168 3.072-7.9872 35.4304-17.3056 74.4448-27.648 115.2-27.5456 108.2368-56.5248 203.3664-86.016 283.136l-46.6944 0c-10.6496 0-19.2512 8.6016-19.2512 19.2512s8.6016 19.2512 19.2512 19.2512L335.872 818.176c-21.1968 53.3504-42.5984 98.6112-63.8976 134.8608L212.992 953.0368c-10.6496 0-19.2512 8.6016-19.2512 19.2512s8.6016 19.2512 19.2512 19.2512l616.3456 0c10.6496 0 19.2512-8.6016 19.2512-19.2512S839.9872 953.0368 829.3376 953.0368zM642.8672 761.5488 437.248 698.6752l164.1472-66.9696c13.2096 45.1584 26.7264 87.3472 40.2432 126.3616C642.048 759.296 642.4576 760.4224 642.8672 761.5488zM473.9072 505.7536c8.2944-32.4608 15.7696-63.7952 22.6304-93.0816l58.7776 46.08-82.944 53.0432C472.8832 509.7472 473.3952 507.8016 473.9072 505.7536zM566.9888 505.7536c8.192 31.9488 16.384 62.976 24.7808 92.7744L464.0768 543.744c0.1024-0.512 0.3072-1.024 0.4096-1.536l96.256-61.6448C562.7904 488.8576 564.8384 497.2544 566.9888 505.7536zM458.4448 564.5312l122.2656 52.4288-155.9552 63.5904C436.224 643.9936 447.3856 605.2864 458.4448 564.5312zM547.328 425.3696 501.76 389.632c7.2704-32.0512 13.5168-61.2352 18.6368-86.2208C527.4624 337.408 536.576 379.1872 547.328 425.3696zM521.6256 126.6688c12.1856 0 22.528 7.9872 26.112 18.944l-52.3264 0C499.0976 134.656 509.44 126.6688 521.6256 126.6688zM481.6896 167.0144 561.152 167.0144l0 15.6672-79.4624 0L481.6896 167.0144zM399.2576 758.0672c5.0176-14.336 9.9328-28.9792 14.848-44.1344l214.8352 65.7408L391.5776 779.6736C394.1376 772.608 396.6976 765.44 399.2576 758.0672zM663.6544 818.176c4.1984 10.8544 8.3968 21.2992 12.5952 31.5392L364.6464 849.7152c4.1984-10.24 8.3968-20.6848 12.5952-31.5392L663.6544 818.176zM355.9424 870.2976c1.2288 0.512 2.56 0.8192 3.9936 0.8192l325.3248 0c13.1072 30.3104 26.3168 57.6512 39.5264 81.92L316.1088 953.0368C329.4208 928.5632 342.7328 900.9152 355.9424 870.2976z" /></svg>