<?xml version="1.0" encoding="UTF-8" standalone="no"?>
<svg width="1024px" height="1024px" viewBox="0 0 1024 1024" version="1.1" xmlns="http://www.w3.org/2000/svg" xmlns:xlink="http://www.w3.org/1999/xlink">
    <!-- Generator: Sketch 43.1 (39012) - http://www.bohemiancoding.com/sketch -->
    <title>component</title>
    <desc>Created with Sketch.</desc>
    <defs></defs>
    <g id="图标" stroke="none" stroke-width="1" fill="none" fill-rule="evenodd">
        <g id="component" fill-rule="nonzero" fill="#000000">
            <g transform="translate(64.000000, 64.000000)" id="Shape">
                <path d="M762.70971,407.016 C729.850343,407.016 698.397408,419.304 672.825915,442.536 L672.825915,337.576 C672.721535,275.337175 622.479962,224.839545 560.31135,224.488 L560.31135,224.04 L456.04359,224.104 C478.290788,199.72 491.012606,167.72 491.012606,134.12 C490.906898,60.4420195 431.25325,0.750496851 357.657274,0.68 C284.111229,0.820974332 224.535335,60.4919051 224.4298,134.12 C224.4298,167.016 236.640187,198.376 259.910245,224.104 L112.10702,224.104 L112.10702,224.68 C50.67151,225.704 0.998886414,275.88 0.998886414,337.576 L1.31853007,337.576 L1.63817372,454.056 C-2.13362138,481.896 7.58354566,514.728 37.7579065,525.48 C50.4797238,530.088 75.348,532.968 98.5541292,500.2 C116.037839,475.589114 147.395776,465.097523 176.147153,474.239292 C204.89853,483.381062 224.462834,510.063855 224.557657,540.264 C224.557657,578.664 193.424365,609.768 155.131056,609.768 C132.500285,609.768 111.148089,598.504 97.8509131,579.368 C75.6037149,547.112 49.5207929,552.36 39.4200535,556.136 C9.62926503,566.888 0.359599109,599.912 1.31853007,623.528 L1.31853007,783.912 L0.998886414,783.912 C1.104628,846.374846 51.6954423,896.9648 114.088811,897 L559.863849,897 C622.257173,896.92946 672.819383,846.310882 672.889844,783.848 L672.889844,638.824 C697.24669,661.096 729.211056,673.832 762.773639,673.832 C836.369573,673.726174 895.994624,614.006023 896.065042,540.328 C895.818946,466.729197 836.226833,407.156447 762.70971,407.016 L762.70971,407.016 Z M762.70971,609.896 C740.015011,609.896 718.726744,598.632 705.429568,579.496 C683.18237,547.112 657.035519,552.36 646.93478,556.136 C617.143991,566.888 607.938254,599.912 608.897185,623.528 L608.897185,783.912 C608.897185,811.0579 586.915591,833.064 559.79992,833.064 L114.088811,833.064 C86.9524348,833.028742 64.9628361,811.014628 64.9276169,783.848 L65.2472606,783.848 L65.2472606,638.824 C104.236985,674.516438 160.604457,683.785604 208.950315,662.454785 C257.296172,641.123965 288.494169,593.219777 288.486388,540.328 C288.34548,466.675017 228.702121,407.022414 155.131056,406.952 C121.780516,407.088542 89.6989042,419.766454 65.2472606,442.472 L65.2472606,337.512 L64.9276169,337.512 C64.9980137,310.370369 86.9773352,288.395157 114.088811,288.36 L114.088811,288.04 L271.353488,287.72 C275.125283,288.232 278.961007,288.552 282.860659,288.552 C307.728935,288.552 333.556143,277.736 342.825808,251.496 C347.364748,238.76 350.241541,213.928 317.510031,190.76 C290.67676,171.71945 280.87105,136.442254 294.022976,106.262554 C307.174902,76.0828551 339.67506,59.2831435 371.868743,66.0231682 C404.062425,72.7631929 427.114424,101.193227 427.083875,134.12 C427.083875,156.84 415.832419,178.152 396.589871,191.592 C364.561577,213.736 369.675875,239.784 373.383742,250.024 C384.123768,279.912 416.407777,289.256 440.700695,288.104 L559.79992,288.104 L559.79992,288.488 C586.905702,288.488 608.897185,310.568 608.897185,337.64 L609.1529,454.12 C605.381105,481.96 615.1622,514.856 645.336561,525.608 C658.058379,530.216 682.926655,533.096 706.068855,500.328 C725.065688,473.571033 760.194961,463.805935 790.252265,476.927024 C820.309569,490.048112 837.06657,522.463425 830.408561,554.60673 C823.750551,586.750034 795.500194,609.821942 762.70971,609.896 Z"></path>
            </g>
        </g>
    </g>
</svg>