<?xml version="1.0" encoding="UTF-8" standalone="no"?>
<svg width="1024px" height="1024px" viewBox="0 0 1024 1024" version="1.1" xmlns="http://www.w3.org/2000/svg" xmlns:xlink="http://www.w3.org/1999/xlink">
    <!-- Generator: Sketch 43.1 (39012) - http://www.bohemiancoding.com/sketch -->
    <title>depend</title>
    <desc>Created with Sketch.</desc>
    <defs></defs>
    <g id="图标" stroke="none" stroke-width="1" fill="none" fill-rule="evenodd">
        <g id="depend" fill-rule="nonzero" fill="#000000">
            <g id="关联关系" transform="translate(64.000000, 73.000000)">
                <path d="M839.283022,538.672887 C840.803075,523.475591 842.323128,508.278296 842.323128,493.081 C842.323128,328.950209 740.479575,189.135091 596.074539,132.905098 C591.51438,59.9580795 530.712259,0.688627154 456.229662,0.688627154 C381.747064,0.688627154 320.944944,58.4383496 316.384785,132.905098 C171.979749,189.135091 70.1361965,328.950209 70.1361965,493.081 C70.1361965,499.159919 70.1361965,505.238836 71.6562489,511.317755 C29.0947642,535.633428 0.213757455,581.225314 0.213757455,632.896119 C0.213757455,710.402326 62.5359308,772.711237 140.058635,772.711237 C155.259165,772.711237 170.459695,769.671779 184.140173,765.11259 C254.062612,835.020149 349.825952,877.572576 456.229662,877.572576 C553.513055,877.572576 641.67613,841.099067 710.078515,781.829615 C723.758992,786.388803 738.959523,789.428262 755.680106,789.428262 C833.20281,789.428262 895.524983,727.119351 895.524984,649.613144 C894.00493,605.540987 872.724189,564.50829 839.283022,538.672887 L839.283022,538.672887 Z M770.880636,511.317755 C764.800424,511.317755 760.240265,509.798025 754.160053,509.798026 C676.63735,509.798026 614.315176,572.106937 614.315175,649.613144 C614.315175,684.566923 627.995652,716.481244 649.276395,742.316647 C596.07454,783.349344 529.192207,807.665017 456.229662,807.665017 C374.146799,807.665017 301.184254,777.270426 244.942293,725.599621 C267.743088,701.283948 281.423565,667.849899 281.423565,631.376389 C281.423565,553.870183 219.101392,491.561271 141.578688,491.561271 C141.578688,362.38426 219.101392,251.444003 331.585314,201.292927 C354.38611,248.404544 401.507753,280.318864 457.749715,280.318864 C513.991677,280.318864 561.11332,248.404544 583.914115,201.292927 C694.877986,249.924273 773.920742,360.86453 773.920742,491.561271 C772.400689,499.159919 770.880636,505.238837 770.880636,511.317755 Z" id="Shape"></path>
            </g>
        </g>
    </g>
</svg>