<?xml version="1.0" encoding="UTF-8" standalone="no"?>
<svg width="1024px" height="1024px" viewBox="0 0 1024 1024" version="1.1" xmlns="http://www.w3.org/2000/svg" xmlns:xlink="http://www.w3.org/1999/xlink">
    <!-- Generator: Sketch 43.1 (39012) - http://www.bohemiancoding.com/sketch -->
    <title>document</title>
    <desc>Created with Sketch.</desc>
    <defs></defs>
    <g id="图标" stroke="none" stroke-width="1" fill="none" fill-rule="evenodd">
        <g id="document" fill-rule="nonzero" fill="#000000">
            <g id="文档" transform="translate(149.000000, 64.000000)">
                <path d="M530.640379,615.494809 L196.074164,615.494809 C180.669839,615.494809 168.19243,627.999622 168.19243,643.451915 C168.19243,658.876671 180.670881,671.409021 196.074164,671.409021 L530.640379,671.409021 C546.044703,671.409021 558.522112,658.879849 558.522112,643.451915 C558.522112,627.999622 546.043661,615.494809 530.640379,615.494809 Z M530.640379,447.781825 L196.074164,447.781825 C180.669839,447.781825 168.19243,460.286638 168.19243,475.738931 C168.19243,491.163688 180.670881,503.696038 196.074164,503.696038 L530.640379,503.696038 C546.044703,503.696038 558.522112,491.191225 558.522112,475.738931 C558.522112,460.286638 546.043661,447.781825 530.640379,447.781825 Z M502.784686,0.56344208 L502.784686,1.35353191 C499.185934,1.35353191 484.351369,-0.0402458629 447.019136,0.56344208 L112.452921,0.56344208 C50.8616643,0.56344208 0.921822095,50.6324728 0.921822095,112.38869 L0.921822095,783.205674 C0.921822095,844.936473 50.8627059,895.005504 112.452921,895.005504 L614.316826,895.005504 C675.881001,895.005504 725.820844,844.936473 725.820844,783.205674 L725.820844,224.187461 L502.785727,0.562382979 L502.784686,0.56344208 Z M670.054253,783.203556 C670.054253,814.081664 645.09631,839.116709 614.288703,839.116709 L112.450838,839.116709 C81.6421894,839.116709 56.6852884,814.083783 56.6852884,783.203556 L56.6852884,112.386572 C56.6852884,81.5084634 81.643231,56.4734184 112.450838,56.4734184 L446.215016,56.4734184 C445.697337,123.416057 447.017053,168.273248 447.017053,168.273248 C447.017053,230.029466 496.957937,280.073078 558.548152,280.073078 L670.079251,280.073078 L670.079251,783.205674 L670.054253,783.203556 Z M558.522112,224.186402 C527.713463,224.186402 502.756562,199.153475 502.756562,168.273248 L502.756562,56.4734184 L670.053211,224.184284 L558.522112,224.184284 L558.522112,224.186402 Z" id="Shape"></path>
            </g>
        </g>
    </g>
</svg>