<?xml version="1.0" encoding="UTF-8" standalone="no"?>
<svg width="1024px" height="1024px" viewBox="0 0 1024 1024" version="1.1" xmlns="http://www.w3.org/2000/svg" xmlns:xlink="http://www.w3.org/1999/xlink">
    <!-- Generator: Sketch 43.1 (39012) - http://www.bohemiancoding.com/sketch -->
    <title>make</title>
    <desc>Created with Sketch.</desc>
    <defs></defs>
    <g id="图标" stroke="none" stroke-width="1" fill="none" fill-rule="evenodd">
        <g id="make" fill-rule="nonzero" fill="#272636">
            <g transform="translate(64.000000, 102.000000)" id="Shape">
                <path d="M383.205145,325.906201 C359.897492,302.598674 331.773714,290.945607 298.832418,290.945607 C265.891122,290.945607 237.765951,302.598674 214.458299,325.906201 C191.150647,349.213727 179.497517,377.337354 179.497517,410.278473 C179.497517,443.219592 191.150647,471.344613 214.458299,494.65214 C237.765951,517.959666 265.889729,529.612734 298.832418,529.612734 C331.775108,529.612734 359.898886,517.959666 383.205145,494.65214 C406.512797,471.344613 418.165926,443.220986 418.165926,410.278473 C418.165926,377.337356 406.512797,349.213729 383.205145,325.906201 Z M758.454866,606.993446 C746.956331,595.184392 732.971739,589.280561 716.501091,589.280561 C700.341026,589.280561 686.356435,595.184392 674.547316,606.993446 C662.738199,618.491919 656.834336,632.476436 656.834336,648.946995 C656.834336,665.417555 662.739591,679.558058 674.547316,691.36572 C686.045851,702.864193 700.030443,708.613429 716.501091,708.613429 C732.971739,708.613429 747.112319,702.709599 758.920044,690.900545 C770.418578,679.402072 776.167846,665.417555 776.167846,648.946995 C776.169239,632.476436 770.263983,618.491919 758.454866,606.993446 Z M758.454866,129.65919 C746.956331,117.850137 732.971739,111.946306 716.501091,111.946306 C700.341026,111.946306 686.356435,117.850137 674.547316,129.65919 C662.738199,141.157663 656.834336,155.14218 656.834336,171.61274 C656.834336,188.083299 662.739591,202.223803 674.547316,214.031464 C686.045851,225.529937 700.030443,231.279174 716.501091,231.279174 C732.971739,231.279174 747.112319,225.375343 758.920044,213.566289 C770.418578,202.067816 776.167846,188.083299 776.167846,171.61274 C776.169239,155.142179 770.263983,141.157663 758.454866,129.65919 Z M597.167583,454.096903 C597.167583,462.176196 593.593789,466.837701 586.446202,468.08142 L514.193176,479.269312 C510.773977,490.146622 505.801864,501.955677 499.275443,514.696475 C509.842228,529.614129 523.82682,547.483 541.229217,568.303092 C543.404691,571.410298 544.492427,574.518897 544.492427,577.626103 C544.492427,581.355865 543.404691,584.307084 541.229217,586.482545 C534.081631,595.805557 522.116525,609.012922 505.335294,626.104645 C485.134864,645.992993 472.083415,655.937166 466.178159,655.937166 C463.070936,655.937166 459.807725,654.849435 456.388528,652.673974 L402.781623,610.720424 C391.283088,616.624255 379.319376,621.441747 366.887699,625.170116 C363.4685,658.732399 359.894708,682.817075 356.166319,697.422754 C353.990845,704.880885 349.329315,708.610646 342.181727,708.610646 L255.477538,708.610646 C247.398202,708.610646 242.736672,704.72629 241.492946,696.956187 L230.771565,625.635293 C220.20478,622.528087 208.55165,617.710595 195.810784,611.185601 L140.804167,652.672581 C138.628694,654.848043 135.521471,655.935774 131.481106,655.935774 C128.061907,655.935774 124.800089,654.693449 121.691474,652.207405 C76.9438455,610.876409 54.569335,586.014583 54.569335,577.623316 C54.569335,574.826691 55.6570716,571.874079 57.832545,568.766873 C60.9397676,564.415949 67.7767716,555.559506 78.3435571,542.196153 C87.0454519,531.318843 93.882456,522.462399 98.8545693,515.625432 C91.7069826,501.951497 86.2682979,489.210699 82.5399087,477.401644 L11.6852019,466.213752 C4.22703124,465.282008 0.497249752,460.775097 0.497249752,452.695804 L0.497252475,366.461437 C0.497252475,358.382144 4.07104649,353.720639 11.2186331,352.47692 L83.4716593,341.289028 C86.8908582,330.411718 91.8629715,318.602663 98.3879992,305.861865 C87.8212137,290.945605 73.8366216,273.076733 56.4342243,252.255248 C54.258751,248.836068 53.1710143,245.728862 53.1710143,242.932237 C53.1710143,239.202476 54.258751,236.09527 56.4342243,233.609226 C63.2712284,224.286214 75.2349409,211.233443 92.3281479,194.452301 C112.528577,174.563954 125.580027,164.61978 131.485283,164.61978 C134.904482,164.61978 138.166299,165.707511 141.274914,167.882973 L194.881819,209.836522 C205.448604,204.24188 217.412317,199.269794 230.775742,194.920263 C234.194941,161.35798 237.768734,137.42929 241.497123,123.134194 C243.672597,115.676063 248.334127,111.946302 255.481715,111.946302 L342.185904,111.946302 C350.265239,111.946302 354.92677,115.830657 356.170496,123.600761 L366.891876,194.921655 C377.458662,198.028861 389.111792,202.846353 401.852658,209.371347 L456.859275,167.884367 C459.345332,165.708905 462.452554,164.621174 466.182336,164.621174 C469.601535,164.621174 472.863353,165.863499 475.971967,168.349543 C520.722381,209.681929 543.098285,234.542364 543.098285,242.933631 C543.098285,245.419675 542.010548,248.372286 539.835075,251.790073 L519.324063,278.3594 C510.622168,289.23671 503.941152,298.093153 499.279621,304.930121 C506.427208,319.847774 511.709905,332.588572 515.129104,343.153909 L585.983811,353.875232 C593.441981,355.429531 597.171763,360.091037 597.171763,367.859749 L597.167583,454.096903 L597.167583,454.096903 Z M895.502748,681.57614 C895.502748,686.548226 872.351083,691.365719 826.046361,696.025832 C822.317972,704.417099 817.655049,712.496391 812.061769,720.265103 C827.911252,755.381684 835.835993,776.824331 835.835993,784.593043 C835.835993,785.83676 835.214826,786.924492 833.971102,787.856235 C796.057693,809.920044 776.790405,820.951948 776.169238,820.951948 C769.642817,820.951948 754.415893,803.083076 730.487075,767.345332 C724.271237,767.966495 719.609707,768.277076 716.502483,768.277076 C713.395259,768.277076 708.73373,767.966495 702.517891,767.345332 C678.589073,803.083076 663.360756,820.951948 656.835729,820.951948 C656.214562,820.951948 636.947274,809.920044 599.033865,787.856235 C597.790141,786.924491 597.168974,785.83676 597.168974,784.593043 C597.168974,776.824331 605.093715,755.381685 620.943197,720.265103 C615.349918,712.496391 610.688387,704.415705 606.958605,696.025832 C560.653884,691.364326 537.502219,686.548226 537.502219,681.57614 L537.502219,616.315064 C537.502219,611.342977 560.653884,606.525485 606.958605,601.865371 C610.99897,592.852942 615.6605,584.773649 620.943197,577.6261 C605.093715,542.50952 597.168974,521.066872 597.168974,513.298161 C597.168974,512.054443 597.790141,510.966711 599.033865,510.034968 C599.965614,509.724387 610.065828,503.975151 629.333116,492.787259 C646.735513,482.532503 655.903979,477.40443 656.835727,477.40443 C663.672731,477.40443 678.899655,495.118708 702.51789,530.54587 C708.733729,529.924707 713.395258,529.614126 716.502482,529.614126 C719.609706,529.614126 724.271235,529.924707 730.487074,530.54587 C746.336557,508.482061 760.63173,491.078365 773.372597,478.337567 L776.169237,477.405822 C777.412961,477.405822 796.680249,488.283132 833.971101,510.036361 C835.214825,510.968105 835.835991,512.055836 835.835991,513.299553 C835.835991,521.068265 827.911251,542.510911 812.061768,577.627493 C817.344464,584.775041 822.005995,592.854335 826.04636,601.866764 C872.351082,606.528269 895.502746,611.344369 895.502746,616.316456 L895.502748,681.57614 Z M895.502748,204.241884 C895.502748,209.213971 872.351083,214.031463 826.046361,218.691576 C822.317972,227.082843 817.655049,235.162136 812.061769,242.930847 C827.911252,278.047428 835.835993,299.490076 835.835993,307.258787 C835.835993,308.502505 835.214826,309.590237 833.971102,310.52198 C796.057693,332.585789 776.790405,343.617693 776.169238,343.617693 C769.642817,343.617693 754.415893,325.74882 730.487075,290.011076 C724.271237,290.63224 719.609707,290.942821 716.502483,290.942821 C713.395259,290.942821 708.73373,290.63224 702.517891,290.011076 C678.589073,325.74882 663.360756,343.617693 656.835729,343.617693 C656.214562,343.617693 636.947274,332.585789 599.033865,310.52198 C597.790141,309.590235 597.168974,308.502505 597.168974,307.258787 C597.168974,299.490076 605.093715,278.047429 620.943197,242.930847 C615.349918,235.162136 610.688387,227.08145 606.958605,218.691576 C560.653884,214.030071 537.502219,209.213971 537.502219,204.241884 L537.502219,138.980808 C537.502219,134.008721 560.653884,129.191229 606.958605,124.531116 C610.99897,115.518687 615.6605,107.439393 620.943197,100.291845 C605.093715,65.1752642 597.168974,43.7326167 597.168974,35.9639052 C597.168974,34.7201877 597.790141,33.6324555 599.033865,32.7007127 C599.965614,32.3901318 610.065828,26.6408953 629.333116,15.4530033 C646.735513,5.19824782 655.903979,0.0701746054 656.835727,0.0701746054 C663.672731,0.0701746054 678.899655,17.784453 702.51789,53.2116146 C708.733729,52.5904514 713.395258,52.2798704 716.502482,52.2798704 C719.609706,52.2798704 724.271235,52.5904514 730.487074,53.2116146 C746.336557,31.1478053 760.63173,13.7441092 773.372597,1.00331113 L776.169237,0.0715669301 C777.412961,0.0715669301 796.680249,10.9488766 833.971101,32.702105 C835.214825,33.6338492 835.835991,34.7215801 835.835991,35.9652975 C835.835991,43.734009 827.911251,65.1766551 812.061768,100.293237 C817.344464,107.440785 822.005995,115.520079 826.04636,124.532508 C872.351082,129.194014 895.502746,134.010114 895.502746,138.9822 L895.502748,204.241884 L895.502748,204.241884 Z"></path>
            </g>
        </g>
    </g>
</svg>