<?xml version="1.0" encoding="UTF-8" standalone="no"?>
<svg width="1024px" height="1024px" viewBox="0 0 1024 1024" version="1.1" xmlns="http://www.w3.org/2000/svg" xmlns:xlink="http://www.w3.org/1999/xlink">
    <!-- Generator: Sketch 43.1 (39012) - http://www.bohemiancoding.com/sketch -->
    <title>merge</title>
    <desc>Created with Sketch.</desc>
    <defs></defs>
    <g id="图标" stroke="none" stroke-width="1" fill="none" fill-rule="evenodd">
        <g id="merge" fill-rule="nonzero" fill="#000000">
            <g id="合并" transform="translate(64.000000, 66.000000)">
                <path d="M778.861783,295.203491 L672.709698,295.203491 L672.709698,132.491714 C672.709698,59.763467 613.851575,0.805527846 541.243792,0.805527846 L131.725263,0.805526679 C59.1186731,0.805526679 0.259356463,59.7634658 0.259356463,132.491713 L0.259356463,542.696415 C0.259356463,615.424662 59.1186731,674.381407 131.725263,674.381407 L298.323621,674.381407 L298.323621,776.548018 C298.323621,841.150231 350.606184,893.519202 415.101525,893.519202 L778.861781,893.519202 C843.357122,893.519202 895.638494,841.149036 895.638494,776.548018 L895.638494,412.177064 C895.638494,347.574851 843.357123,295.203491 778.861783,295.203491 Z M131.725263,599.901119 C100.23411,599.901119 74.6150571,574.239141 74.6150571,542.696416 L74.6150583,132.491713 C74.6150583,100.947794 100.23411,75.2846212 131.725264,75.2846212 L541.243792,75.2846212 C572.734945,75.2846212 598.353998,100.947794 598.353998,132.491713 L598.353998,295.203489 L415.101526,295.203491 C350.606185,295.203491 298.323622,347.573657 298.323622,412.17587 L298.323622,599.901119 L131.725263,599.901119 Z M598.353997,369.683779 L598.353997,542.696415 C598.353997,574.239139 572.734945,599.901118 541.243791,599.901118 L372.678131,599.901119 L372.678131,412.177064 C372.678131,388.746043 391.708506,369.683779 415.101526,369.683779 L598.353997,369.683779 Z M821.283985,776.548018 C821.283985,799.977845 802.253609,819.040107 778.861781,819.040107 L415.101525,819.040107 C391.709698,819.040107 372.678129,799.977845 372.678129,776.548018 L372.678131,674.381407 L541.242599,674.381407 C613.849189,674.381407 672.708505,615.424663 672.708505,542.696415 L672.708505,369.683779 L778.860589,369.683779 C802.252416,369.683779 821.282793,388.746041 821.282793,412.177064 L821.282793,776.548018 L821.283985,776.548018 Z" id="Shape"></path>
            </g>
        </g>
    </g>
</svg>