<?xml version="1.0" standalone="no"?><!DOCTYPE svg PUBLIC "-//W3C//DTD SVG 1.1//EN" "http://www.w3.org/Graphics/SVG/1.1/DTD/svg11.dtd"><svg class="icon" width="64px" height="64.00px" viewBox="0 0 1024 1024" version="1.1" xmlns="http://www.w3.org/2000/svg"><path d="M956.8 334.08c-8.96 0-16 7.04-16 16L940.8 723.2c0 17.28-8.96 33.28-24.32 41.6L544 977.92c-14.72 8.32-32.64 8.32-47.36 0L123.52 764.8c-14.72-8.32-24.32-24.32-24.32-41.6l0-424.96c0-17.28 8.96-33.28 24.32-41.6l372.48-213.12c14.72-8.32 32.64-8.32 47.36 0l334.72 191.36c7.68 4.48 17.28 1.92 21.76-5.76 4.48-7.68 1.92-17.28-5.76-21.76l-334.72-191.36c-24.32-14.08-55.04-14.08-79.36 0L107.52 228.48c-24.96 14.08-40.32 40.96-40.32 69.76L67.2 723.2c0 28.8 15.36 55.04 40.32 69.76L480 1005.44c12.16 7.04 26.24 10.24 39.68 10.24 13.44 0 27.52-3.2 39.68-10.24l373.12-213.12c24.96-14.08 40.32-40.96 40.32-69.76l0-372.48C972.8 341.76 965.76 334.08 956.8 334.08z"  /><path d="M692.48 317.44 627.2 317.44c7.68 26.24 16.64 52.48 26.88 76.8l67.2 0C710.4 369.28 700.8 343.68 692.48 317.44z"  /><path d="M727.68 403.84c-63.36 19.2-115.84 33.28-166.4 44.8l0-148.48-69.76 0L491.52 461.44c-54.4 8.96-111.36 14.72-181.76 19.2l0 33.92c22.4-0.64 44.8-2.56 65.28-3.84-10.24 5.12-17.28 15.36-17.28 26.88l0 166.4c0 17.28 14.08 30.08 30.72 30.08l292.48 0c17.28 0 30.72-13.44 30.72-30.08l0-166.4c0-17.28-14.08-30.72-30.72-30.72l-266.88 0c129.28-12.16 222.08-33.28 313.6-64L727.68 403.84zM427.52 551.04c0-9.6 8.32-17.28 17.28-17.28l179.84 0c9.6 0 17.28 7.68 17.28 17.28L641.92 576l-215.04 0L426.88 551.04zM427.52 601.6l215.04 0 0 38.4-215.04 0L427.52 601.6zM427.52 666.24l215.04 0L642.56 691.2c0 9.6-7.68 17.28-17.28 17.28l-179.84 0c-8.96 0-17.28-7.68-17.28-17.28L428.16 666.24z"  /><path d="M369.28 317.44c-13.44 41.6-29.44 81.92-48 120.96l67.2 0c19.84-39.04 34.56-79.36 46.72-120.96L369.28 317.44z"  /></svg>