<?xml version="1.0" encoding="UTF-8" standalone="no"?>
<svg width="1024px" height="1024px" viewBox="0 0 1024 1024" version="1.1" xmlns="http://www.w3.org/2000/svg" xmlns:xlink="http://www.w3.org/1999/xlink">
    <!-- Generator: Sketch 43.1 (39012) - http://www.bohemiancoding.com/sketch -->
    <title>remote</title>
    <desc>Created with Sketch.</desc>
    <defs></defs>
    <g id="图标" stroke="none" stroke-width="1" fill="none" fill-rule="evenodd">
        <g id="remote" fill-rule="nonzero" fill="#000000">
            <g id="远程-(1)" transform="translate(64.000000, 231.000000)">
                <path d="M882.87972,368.60607 L695.570794,548.710136 C687.731513,556.205724 677.714706,560.121854 667.473945,560.848844 C666.467082,561.127246 665.461145,561.466694 664.339529,561.466694 C658.239123,561.466694 653.25478,556.708882 653.25478,550.837462 L653.25478,462.518276 L386.250048,462.518276 C362.687786,462.518276 343.546282,444.229745 343.546283,421.631065 L343.546283,256.127856 C343.546283,233.587447 362.687787,215.240645 386.250048,215.240645 L653.25478,215.240645 L653.25478,126.309158 C653.25478,120.436813 658.239123,115.682701 664.339529,115.682702 C665.345467,115.682702 666.24313,115.962029 667.194467,116.237656 C677.490753,116.907301 687.676913,120.828056 695.570794,128.430935 L882.87972,308.538701 C900.117623,325.148495 900.117623,351.995352 882.87972,368.60607 L882.87972,368.60607 Z M841.24297,320.560869 L699.930473,188.673115 L699.930473,256.127856 L405.447078,256.127856 C393.63587,256.127856 384.122494,265.300332 384.122495,276.541864 L384.122495,399.202572 C384.122495,410.444104 393.635871,419.619355 405.447078,419.619354 L699.931399,419.619354 L699.931399,493.170272 L841.24297,357.200826 C851.877036,347.074754 851.877036,330.687866 841.24297,320.560869 Z M490.739858,141.017307 L196.080632,141.017307 L196.080632,73.6171373 L54.658935,205.45032 C44.0239432,215.576392 44.0239432,231.96328 54.658935,242.032007 L196.079706,377.949657 L196.079706,304.453309 L290.158477,304.453309 L290.158477,347.29766 L242.755399,347.29766 L242.755399,435.556727 C242.755399,441.434623 237.832135,446.18596 231.731729,446.18596 C230.610113,446.18596 229.54865,445.852987 228.542712,445.57366 C218.301952,444.846669 208.285144,440.986034 200.445864,433.434951 L13.0221847,253.443726 C-4.21571872,236.887578 -4.21571872,209.9843 13.0221847,193.428152 L200.445864,13.4350771 C208.339745,5.82664832 218.525906,1.85687288 228.822191,1.24179796 C229.774454,0.960621072 230.671191,0.681294174 231.732654,0.681293252 C237.832135,0.681293252 242.756325,5.43540511 242.756325,11.2504053 L242.756325,100.184667 L509.990562,100.184667 C533.552824,100.184667 552.689701,118.476899 552.689701,141.074652 L552.689701,153.940352 L510.603194,153.940352 C507.468777,146.386494 499.804402,141.017307 490.739858,141.017307 Z" id="Shape"></path>
            </g>
        </g>
    </g>
</svg>