<?xml version="1.0" encoding="UTF-8" standalone="no"?>
<svg width="1024px" height="1024px" viewBox="0 0 1024 1024" version="1.1" xmlns="http://www.w3.org/2000/svg" xmlns:xlink="http://www.w3.org/1999/xlink">
    <!-- Generator: Sketch 43.1 (39012) - http://www.bohemiancoding.com/sketch -->
    <title>style</title>
    <desc>Created with Sketch.</desc>
    <defs></defs>
    <g id="图标" stroke="none" stroke-width="1" fill="none" fill-rule="evenodd">
        <g id="style" fill-rule="nonzero" fill="#000000">
            <g id="样式设置_灰化" transform="translate(64.000000, 64.000000)">
                <path d="M719.936,0 L665.536,118.336 L543.936,137.344 L631.936,229.44 L611.136,359.552 L719.936,298.112 L828.8,359.552 L808,229.44 L896,137.344 L774.336,118.336 L719.936,0 L719.936,0 Z M128.050216,468.224 L88.379757,554.1934 L5.68434189e-14,568.052952 L63.974892,635.040794 L48.910161,729.546874 L128.050216,684.854835 L207.089839,729.546874 L192.025108,635.040794 L256,568.052952 L167.620243,554.1934 L128.050216,468.224 L128.050216,468.224 Z M327.488,728.64 L302.336,783.424 L245.952,792.256 L286.72,834.944 L277.12,895.168 L327.488,866.752 L377.92,895.168 L368.32,834.944 L409.088,792.256 L352.768,783.424 L327.488,728.64 L327.488,728.64 Z M111.872,202.24 L195.904,112 L279.872,202.24 L195.904,292.352 L111.872,202.24 L111.872,202.24 Z M195.904,46.912 L47.488,206.144 L195.904,365.312 L690.176,896 L838.592,736.768 L195.904,46.912 L195.904,46.912 Z" id="Shape"></path>
            </g>
        </g>
    </g>
</svg>