<?xml version="1.0" encoding="UTF-8" standalone="no"?>
<svg width="1024px" height="1024px" viewBox="0 0 1024 1024" version="1.1" xmlns="http://www.w3.org/2000/svg" xmlns:xlink="http://www.w3.org/1999/xlink">
    <!-- Generator: Sketch 43.1 (39012) - http://www.bohemiancoding.com/sketch -->
    <title>webservice</title>
    <desc>Created with Sketch.</desc>
    <defs></defs>
    <g id="图标" stroke="none" stroke-width="1" fill="none" fill-rule="evenodd">
        <g id="webservice" fill-rule="nonzero" fill="#272636">
            <g id="webserver" transform="translate(64.000000, 115.000000)">
                <path d="M403.015154,451.242285 C403.015154,451.242285 390.669924,475.189579 348.555932,451.242285 C348.555932,451.242285 326.762272,435.262163 331.131382,414.203884 C331.131382,414.203884 299.729545,388.072534 266.773998,414.933259 C266.773998,414.933259 233.818452,478.097924 316.602614,453.413116 C316.602614,453.413116 325.392727,522.085221 403.490323,500.933354 L403.490323,342.756698 C399.174122,343.092393 394.803994,343.428089 389.960732,343.769888 C307.15215,349.578436 363.822382,433.078109 403.015154,451.242285 Z M2.8467598,425.097712 C2.8467598,595.927035 141.377273,734.425834 312.232487,734.425834 C344.002657,734.425834 374.640357,729.622336 403.489306,720.727424 L403.489306,619.156146 C393.671525,614.030178 382.722294,607.458685 372.535166,599.353165 C372.535166,599.353165 351.450697,568.865912 373.244357,544.900307 C373.244357,544.900307 359.452253,510.043927 294.095692,498.432932 C294.095692,498.432932 252.691909,494.062788 238.899806,494.801318 C238.899806,494.801318 214.183909,467.380084 210.577918,437.887711 C210.577918,437.887711 187.335349,414.933261 148.827348,404.032313 C148.827348,404.032313 95.8139815,385.887463 129.218243,315.460588 C129.218243,315.460588 169.909781,241.394976 125.585797,236.308681 C125.585797,236.308681 103.816557,248.644981 95.8149997,248.644981 C95.8149997,248.644981 84.3122527,245.42739 86.3655516,240.670688 C86.3655516,240.670688 113.266004,168.769804 174.992154,191.288866 C174.992154,191.288866 201.129488,202.91512 205.472142,223.243006 C205.472142,223.243006 219.844216,236.308681 266.775015,204.355558 C266.775015,204.355558 316.603631,209.447957 281.014815,234.848915 C245.428034,260.269201 237.452932,264.625104 279.567942,276.980732 C279.567942,276.980732 331.1324,292.934405 319.523834,231.947692 C319.523834,231.947692 343.950763,209.158038 403.490322,256.559257 L403.490323,129.468 C374.641373,120.586311 344.003673,115.783831 312.233505,115.783831 C141.378289,115.783831 2.8467598,254.250077 2.8467598,425.097712 Z M437.181517,1.76435464 L437.181517,792.235646 L893.151206,792.235646 L893.151206,1.76435464 L437.181517,1.76435464 Z M741.538798,704.655747 L588.793923,704.655747 L588.793923,639.538964 L741.538798,639.538964 L741.538798,704.655747 Z M741.538798,585.637461 L588.793923,585.637461 L588.793923,520.518642 L741.538798,520.518642 L741.538798,585.637461 Z M832.50665,275.743742 L497.826073,275.743742 L497.826073,210.624923 L832.507667,210.624923 L832.507667,275.743742 L832.50665,275.743742 Z M832.50665,158.974615 L497.826073,158.974615 L497.826073,93.8557963 L832.507667,93.8557963 L832.507667,158.974615 L832.50665,158.974615 Z" id="Shape"></path>
            </g>
        </g>
    </g>
</svg>